# xmcd
#
# Track frame offsets:
#	150
#	18645
#	33090
#	45402
#	56697
#	71435
#	84220
#	97605
#	111712
#	124205
#	137725
#	149317
#	165815
#	179035
#	193125
#	205440
#
# Disc length: 2924 seconds
#
# Revision: 1
# Processed by: cddbd v1.5.2PL0 Copyright (c) Steve Scherf et al.
# Submitted via: audiograbber 1.83.01
#
DISCID=de0b6a10
DTITLE=Don Williams and Charlie Rich - Greatest Hits
DYEAR=1900
DGENRE=
TTITLE0=I Believe In You
TTITLE1=Amanda
TTITLE2=Years From Now
TTITLE3=It Must Be Love
TTITLE4=Tulsa Time
TTITLE5=You're My Best Friend
TTITLE6=True Blue Hearts
TTITLE7=I'm Just A Country Boy
TTITLE8=Most Beautiful Girl
TTITLE9=Behind Closed Doors
TTITLE10=Daddy Don't You Walk So Fast
TTITLE11=My Elusive Dreams
TTITLE12=Spanish Eyes
TTITLE13=Since I Fell For You
TTITLE14=Rollin' With The Flow
TTITLE15=Every Time You Touch Me (I Get High)
EXTD=
EXTT0=Don Williams
EXTT1=Don Williams
EXTT2=Don Williams
EXTT3=Don Williams
EXTT4=Don Williams
EXTT5=Don Williams
EXTT6=Don Williams
EXTT7=Don Williams
EXTT8=Charlie Rich
EXTT9=Charlie Rich
EXTT10=Charlie Rich
EXTT11=Charlie Rich
EXTT12=Charlie Rich
EXTT13=Charlie Rich
EXTT14=Charlie Rich
EXTT15=Charlie Rich
PLAYORDER=
